# xmcd
#
# Track frame offsets: 
#        150
#        16122
#        40180
#        64202
#
# Disc length: 1174 seconds
#
# Revision: 1
# Processed by: cddbd v1.5.2PL0 Copyright (c) Steve Scherf et al.
# Submitted via: ExactAudioCopy v1.0b4
#
DISCID=29049404
DTITLE=Ursa Major - Tribes Of Love [CDM)
DYEAR=1994
DGENRE=Euro-House
TTITLE0=Tribes Of Love (Radio Edit)
TTITLE1=Tribes Of Love (12"-Mix)
TTITLE2=Tribes Of Love (Sequenz Mix)
TTITLE3=Tribes Of Love (House Mix)
EXTD=
EXTT0=
EXTT1=
EXTT2=
EXTT3=
PLAYORDER=
